<?xml version="1.0" encoding="UTF-8" standalone="no"?>
<svg
   xmlns:dc="http://purl.org/dc/elements/1.1/"
   xmlns:cc="http://creativecommons.org/ns#"
   xmlns:rdf="http://www.w3.org/1999/02/22-rdf-syntax-ns#"
   xmlns:svg="http://www.w3.org/2000/svg"
   xmlns="http://www.w3.org/2000/svg"
   xmlns:sodipodi="http://sodipodi.sourceforge.net/DTD/sodipodi-0.dtd"
   xmlns:inkscape="http://www.inkscape.org/namespaces/inkscape"
   version="1.1"
   id="svg2"
   xml:space="preserve"
   width="120"
   height="120"
   viewBox="0 0 120 120"
   sodipodi:docname="project-logo.svg"
   inkscape:version="1.0.1 (3bc2e813f5, 2020-09-07)"><metadata
     id="metadata8"><rdf:RDF><cc:Work
         rdf:about=""><dc:format>image/svg+xml</dc:format><dc:type
           rdf:resource="http://purl.org/dc/dcmitype/StillImage" /><dc:title /></cc:Work></rdf:RDF></metadata><defs
     id="defs6" /><sodipodi:namedview
     pagecolor="#ffffff"
     bordercolor="#666666"
     borderopacity="1"
     objecttolerance="10"
     gridtolerance="10"
     guidetolerance="10"
     inkscape:pageopacity="0"
     inkscape:pageshadow="2"
     inkscape:window-width="1920"
     inkscape:window-height="1171"
     id="namedview4"
     showgrid="false"
     inkscape:zoom="5.3450696"
     inkscape:cx="88.419517"
     inkscape:cy="55.61171"
     inkscape:window-x="3840"
     inkscape:window-y="0"
     inkscape:window-maximized="1"
     inkscape:current-layer="g10"
     inkscape:document-rotation="0" /><g
     id="g10"
     inkscape:groupmode="layer"
     inkscape:label="ink_ext_XXXXXX"
     transform="matrix(1.3333333,0,0,-1.3333333,0,120)"><g
       id="g4541"
       transform="matrix(1.11339,0,0,1.11339,-130.41325,16.479724)"><path
         d="M 170.868,0 184.246,23.1617 197.617,0 Z"
         style="fill:#f9ae2d;fill-opacity:1;fill-rule:nonzero;stroke:none;stroke-width:0.1"
         id="path22"
         inkscape:connector-curvature="0" /><path
         d="m 170.868,0 -13.375,23.1617 h 26.753 z"
         style="fill:#d28b25;fill-opacity:1;fill-rule:nonzero;stroke:none;stroke-width:0.1"
         id="path24"
         inkscape:connector-curvature="0" /><path
         d="m 157.493,23.1617 13.375,23.168 13.378,-23.168 z"
         style="fill:#936327;fill-opacity:1;fill-rule:nonzero;stroke:none;stroke-width:0.1"
         id="path26"
         inkscape:connector-curvature="0" /><path
         d="M 170.868,46.3297 H 144.121 L 117.365,0 h 26.756 l 26.747,46.3297"
         style="fill:#767a7c;fill-opacity:1;fill-rule:nonzero;stroke:none;stroke-width:0.1"
         id="path28"
         inkscape:connector-curvature="0" /></g><g
       transform="matrix(0.12344532,0,0,-0.12344532,-71.258543,219.71586)"
       style="fill:#000080"
       id="g1676"><path
         style="fill:#000080"
         inkscape:connector-curvature="0"
         id="path1000"
         d="m 1004.79,1369.067 c -3.558,-2.293 -7.387,-4.136 -11.397,-5.489 -37.948,69.819 -95.014,127.372 -164.506,165.914 4.176,9.227 9.728,17.768 16.464,25.33 68.482,-46.902 123.46,-110.954 159.439,-185.755" /><path
         style="fill:#000080"
         inkscape:connector-curvature="0"
         id="path1002"
         d="m 990.437,1362.312 c -16.921,-6.868 -35.077,-10.173 -53.333,-9.71 -65.036,-1.422 -118.911,50.147 -120.332,115.183 -0.042,1.899 -0.038,3.8 0.013,5.699 -0.121,11.062 0.965,22.103 3.236,32.929 70.637,-28.767 130.311,-79.226 170.416,-144.101" /><path
         style="fill:#000080"
         inkscape:connector-curvature="0"
         id="path1004"
         d="m 1007.464,1371.319 c -31.273,77.324 -79.339,146.732 -140.723,203.205 21.314,13.602 46.213,20.512 71.487,19.842 65.188,1.592 119.322,-49.963 120.914,-115.151 0.056,-2.285 0.045,-4.572 -0.032,-6.857 1.763,-40.421 -17.851,-78.793 -51.646,-101.039" /></g></g></svg>
