<?xml version="1.0" encoding="UTF-8" standalone="no"?>
<svg
   version="1.1"
   id="svg2"
   xml:space="preserve"
   width="120"
   height="120"
   viewBox="0 0 120 120"
   sodipodi:docname="project-logo.svg"
   inkscape:version="1.2.2 (b0a8486541, 2022-12-01)"
   xmlns:inkscape="http://www.inkscape.org/namespaces/inkscape"
   xmlns:sodipodi="http://sodipodi.sourceforge.net/DTD/sodipodi-0.dtd"
   xmlns="http://www.w3.org/2000/svg"
   xmlns:svg="http://www.w3.org/2000/svg"
   xmlns:rdf="http://www.w3.org/1999/02/22-rdf-syntax-ns#"
   xmlns:cc="http://creativecommons.org/ns#"
   xmlns:dc="http://purl.org/dc/elements/1.1/"><metadata
     id="metadata8"><rdf:RDF><cc:Work
         rdf:about=""><dc:format>image/svg+xml</dc:format><dc:type
           rdf:resource="http://purl.org/dc/dcmitype/StillImage" /><dc:title /></cc:Work></rdf:RDF></metadata><defs
     id="defs6"><clipPath
       clipPathUnits="userSpaceOnUse"
       id="clipPath210"><path
         d="M 64.09713,512 H 447.9029 c 22.2879,0 30.3701,-2.3206 38.5182,-6.6783 8.1482,-4.3577 14.5429,-10.7524 18.9006,-18.9006 C 509.6794,478.273 512,470.1908 512,447.9029 V 64.09713 C 512,41.80916 509.6794,33.72701 505.3217,25.57886 500.964,17.43071 494.5693,11.03599 486.4211,6.678318 478.273,2.32064 470.1908,0 447.9029,0 H 64.09713 C 41.80916,0 33.72701,2.32064 25.57886,6.678318 17.43071,11.03599 11.03599,17.43071 6.678318,25.57886 2.32064,33.72701 0,41.80916 0,64.09713 V 447.9029 c 0,22.2879 2.32064,30.3701 6.678318,38.5182 4.357672,8.1482 10.752392,14.5429 18.900542,18.9006 8.14815,4.3577 16.2303,6.6783 38.51827,6.6783 z"
         clip-rule="evenodd"
         id="path208" /></clipPath><clipPath
       clipPathUnits="userSpaceOnUse"
       id="clipPath216"><path
         d="M 0,0 H 512 V 512 H 0 Z"
         id="path214" /></clipPath><clipPath
       clipPathUnits="userSpaceOnUse"
       id="clipPath226"><path
         d="M 310.6214,362 424.7089,162.0939 H 310.6961 l -57.0086,99.4988 z"
         clip-rule="evenodd"
         id="path224" /></clipPath><clipPath
       clipPathUnits="userSpaceOnUse"
       id="clipPath232"><path
         d="M 0,0 H 512 V 512 H 0 Z"
         id="path230" /></clipPath><clipPath
       clipPathUnits="userSpaceOnUse"
       id="clipPath242"><path
         d="M 197.1006,362 83.51535,162.0939 H 197.1006 L 310.6214,362 Z"
         clip-rule="evenodd"
         id="path240" /></clipPath><clipPath
       clipPathUnits="userSpaceOnUse"
       id="clipPath248"><path
         d="M 0,0 H 512 V 512 H 0 Z"
         id="path246" /></clipPath><clipPath
       clipPathUnits="userSpaceOnUse"
       id="clipPath253"><path
         d="M 64.09713,512 H 447.9029 c 22.2879,0 30.3701,-2.3206 38.5182,-6.6783 8.1482,-4.3577 14.5429,-10.7524 18.9006,-18.9006 C 509.6794,478.273 512,470.1908 512,447.9029 V 64.09713 C 512,41.80916 509.6794,33.72701 505.3217,25.57886 500.964,17.43071 494.5693,11.03599 486.4211,6.678318 478.273,2.32064 470.1908,0 447.9029,0 H 64.09713 C 41.80916,0 33.72701,2.32064 25.57886,6.678318 17.43071,11.03599 11.03599,17.43071 6.678318,25.57886 2.32064,33.72701 0,41.80916 0,64.09713 V 447.9029 c 0,22.2879 2.32064,30.3701 6.678318,38.5182 4.357672,8.1482 10.752392,14.5429 18.900542,18.9006 8.14815,4.3577 16.2303,6.6783 38.51827,6.6783 z"
         clip-rule="evenodd"
         id="path251" /></clipPath><clipPath
       clipPathUnits="userSpaceOnUse"
       id="clipPath257"><path
         d="M 0,0 H 512 V 512 H 0 Z"
         id="path255" /></clipPath><clipPath
       clipPathUnits="userSpaceOnUse"
       id="clipPath261"><path
         d="M 310.6214,362 424.7089,162.0939 H 310.6961 l -57.0086,99.4988 z"
         clip-rule="evenodd"
         id="path259" /></clipPath><clipPath
       clipPathUnits="userSpaceOnUse"
       id="clipPath265"><path
         d="M 0,0 H 512 V 512 H 0 Z"
         id="path263" /></clipPath><clipPath
       clipPathUnits="userSpaceOnUse"
       id="clipPath269"><path
         d="M 197.1006,362 83.51535,162.0939 H 197.1006 L 310.6214,362 Z"
         clip-rule="evenodd"
         id="path267" /></clipPath><clipPath
       clipPathUnits="userSpaceOnUse"
       id="clipPath273"><path
         d="M 0,0 H 512 V 512 H 0 Z"
         id="path271" /></clipPath></defs><sodipodi:namedview
     pagecolor="#ffffff"
     bordercolor="#666666"
     borderopacity="1"
     objecttolerance="10"
     gridtolerance="10"
     guidetolerance="10"
     inkscape:pageopacity="0"
     inkscape:pageshadow="2"
     inkscape:window-width="1920"
     inkscape:window-height="1164"
     id="namedview4"
     showgrid="false"
     inkscape:zoom="2.6725348"
     inkscape:cx="-40.036897"
     inkscape:cy="109.44666"
     inkscape:window-x="0"
     inkscape:window-y="0"
     inkscape:window-maximized="1"
     inkscape:current-layer="g10"
     inkscape:document-rotation="0"
     inkscape:showpageshadow="2"
     inkscape:pagecheckerboard="0"
     inkscape:deskcolor="#d1d1d1" /><g
     id="g10"
     inkscape:groupmode="layer"
     inkscape:label="ink_ext_XXXXXX"
     transform="matrix(1.3333333,0,0,-1.3333333,0,120)"><g
       id="g579"
       transform="matrix(1.1165352,0,0,1.1165352,1.4731437,-9.7304034)"><g
         transform="matrix(0.20931135,0,0,-0.20931135,-146.752,344.21614)"
         style="fill:#000080"
         id="g1676"><path
           style="fill:#000080"
           inkscape:connector-curvature="0"
           id="path1000"
           d="m 1004.79,1369.067 c -3.558,-2.293 -7.387,-4.136 -11.397,-5.489 -37.948,69.819 -95.014,127.372 -164.506,165.914 4.176,9.227 9.728,17.768 16.464,25.33 68.482,-46.902 123.46,-110.954 159.439,-185.755" /><path
           style="fill:#000080"
           inkscape:connector-curvature="0"
           id="path1002"
           d="m 990.437,1362.312 c -16.921,-6.868 -35.077,-10.173 -53.333,-9.71 -65.036,-1.422 -118.911,50.147 -120.332,115.183 -0.042,1.899 -0.038,3.8 0.013,5.699 -0.121,11.062 0.965,22.103 3.236,32.929 70.637,-28.767 130.311,-79.226 170.416,-144.101" /><path
           style="fill:#000080"
           inkscape:connector-curvature="0"
           id="path1004"
           d="m 1007.464,1371.319 c -31.273,77.324 -79.339,146.732 -140.723,203.205 21.314,13.602 46.213,20.512 71.487,19.842 65.188,1.592 119.322,-49.963 120.914,-115.151 0.056,-2.285 0.045,-4.572 -0.032,-6.857 1.763,-40.421 -17.851,-78.793 -51.646,-101.039" /></g><g
         id="g418"
         transform="matrix(0.08069876,0,0,0.08069876,3.013052,46.230452)"><g
           id="g340" /><g
           id="g348"><g
             id="g346"
             clip-path="url(#clipPath210)"><g
               id="g344"
               clip-path="url(#clipPath216)"><path
                 d="M -1,513 H 513 V -1 H -1 Z"
                 style="fill:#f6b102;fill-opacity:1;fill-rule:nonzero;stroke:none"
                 id="path342" /></g></g></g><g
           id="g356"><g
             id="g354"
             clip-path="url(#clipPath226)"><g
               id="g352"
               clip-path="url(#clipPath232)"><path
                 d="M 252.6875,363 H 425.7089 V 161.0939 H 252.6875 Z"
                 style="fill:#fdebbf;fill-opacity:1;fill-rule:nonzero;stroke:none"
                 id="path350" /></g></g></g><g
           id="g364"><g
             id="g362"
             clip-path="url(#clipPath242)"><g
               id="g360"
               clip-path="url(#clipPath248)"><path
                 d="M 82.51535,363 H 311.6214 V 161.0939 H 82.51535 Z"
                 style="fill:#ffffff;fill-opacity:1;fill-rule:nonzero;stroke:none"
                 id="path358" /></g></g></g><g
           id="g366" /><g
           id="g374"><g
             id="g372"
             clip-path="url(#clipPath210)"><g
               id="g370"
               clip-path="url(#clipPath216)"><path
                 d="M -1,513 H 513 V -1 H -1 Z"
                 style="fill:#f6b102;fill-opacity:1;fill-rule:nonzero;stroke:none"
                 id="path368" /></g></g></g><g
           id="g382"><g
             id="g380"
             clip-path="url(#clipPath226)"><g
               id="g378"
               clip-path="url(#clipPath232)"><path
                 d="M 252.6875,363 H 425.7089 V 161.0939 H 252.6875 Z"
                 style="fill:#fdebbf;fill-opacity:1;fill-rule:nonzero;stroke:none"
                 id="path376" /></g></g></g><g
           id="g390"><g
             id="g388"
             clip-path="url(#clipPath242)"><g
               id="g386"
               clip-path="url(#clipPath248)"><path
                 d="M 82.51535,363 H 311.6214 V 161.0939 H 82.51535 Z"
                 style="fill:#ffffff;fill-opacity:1;fill-rule:nonzero;stroke:none"
                 id="path384" /></g></g></g></g></g></g></svg>
